PLOT

A frustrated man decides to take justice into his own hands after a plea bargain sets
one of his family's killers free. He targets not only the killer but also the district attorney and others
involved in the deal.


Encoded By .......: BigPerm
Runtime ..........: 1h 58mn
File Size ........: 1.08 GB
Resolution .......: 656 x 272 
http://www.imdb.com/title/tt1197624/
Genre ............: Crime,Drama,Thriller
Language .........: English
Subtitles ........: None
Video
ID : 0
Format : MPEG-4 Visual
Format profile : Advanced Simple@L5
Format settings, BVOP : Yes
Format settings, QPel : No
Format settings, GMC : No warppoints
Format settings, Matrix : Default (H.263)
Muxing mode : Packed bitstream
Codec ID : XVID
Codec ID/Hint : XviD
Duration : 1h 58mn
Bit rate : 853 Kbps
Width : 656 pixels
Height : 272 pixels
Display aspect ratio : 2.40:1
Frame rate : 23.976 fps
Color space : YUV
Chroma subsampling : 4:2:0
Bit depth : 8 bits
Scan type : Progressive
Compression mode : Lossy
Bits/(Pixel*Frame) : 0.199
Stream size : 721 MiB (65%)
Writing library : XviD 64
Audio
ID : 1
Format : AC-3
Format/Info : Audio Coding 3
Mode extension : CM (complete main)
Codec ID : 2000
Duration : 1h 58mn
Bit rate mode : Constant
Bit rate : 448 Kbps
Channel(s) : 6 channels
Channel positions : Front: L C R, Side: L R, LFE
Sampling rate : 48.0 KHz
Bit depth : 16 bits
Compression mode : Lossy
Stream size : 378 MiB (34%)
Alignment : Split accross interleaves
Interleave, duration : 42 ms (1.00 video frame)
Interleave, preload duration : 500 ms
 
http://www.shotpix.com/images/77122918756938103073.png 
http://www.shotpix.com/images/97935575430816233399.png 
http://www.shotpix.com/images/18172861242171466395.png 
http://www.shotpix.com/images/67048994535446978950.png 
http://www.shotpix.com/images/67566060564849648914.png

